# xmcd
# 
# Track frame offsets:
#     150
#     13597
#     36791
#     57660
# 
# Disc length: 984
# 
# Revision: 0
# Processed by: cddbd v1.5.2PL0 Copyright (c) Steve Scherf et al.
# Submitted via: BonkEnc v1.0.8
# 
DISCID=2e03d604
DTITLE=Star Gate - No Sex (Until Marriage)
DYEAR=1995
DGENRE=Dance
TTITLE0=No Sex - Until Marriage (Video/Radio Edit)
TTITLE1=No Sex - Until Marriage (Extended Mix)
TTITLE2=No Sex - Until Marriage (Funky Abstract Mix)
TTITLE3=No Sex - Until Marriage (Da House Mix)
EXTD=
EXTT0=
EXTT1=
EXTT2=
EXTT3=
PLAYORDER=
